<?xml version="1.0" encoding="utf-8"?>
<!-- Generator: Adobe Illustrator 17.0.0, SVG Export Plug-In . SVG Version: 6.00 Build 0)  -->
<!DOCTYPE svg PUBLIC "-//W3C//DTD SVG 1.1//EN" "http://www.w3.org/Graphics/SVG/1.1/DTD/svg11.dtd">
<svg version="1.1" id="Livello_1" xmlns="http://www.w3.org/2000/svg" xmlns:xlink="http://www.w3.org/1999/xlink" viewBox="0 0 1920 1250" enable-background="new 0 0 1920 1250" xml:space="preserve">
<g>
	<path d="M1227.796,605.5L780.204,347.083c-18.576-10.725-33.775-1.95-33.775,19.5v516.834
		c0,21.45,15.199,30.225,33.775,19.5L1227.796,644.5C1246.372,633.775,1246.372,616.225,1227.796,605.5z"/>
	<path d="M1542.098,384.708c-31.093-73.512-75.6-139.527-132.284-196.211
		c-56.684-56.685-122.699-101.191-196.211-132.284c-76.12-32.197-156.966-48.521-240.291-48.521S809.141,24.017,733.02,56.214
		c-73.512,31.093-139.527,75.599-196.211,132.284c-56.685,56.684-101.191,122.699-132.284,196.211
		C372.329,460.829,356.004,541.675,356.004,625s16.325,164.171,48.521,240.291c31.093,73.512,75.599,139.527,132.284,196.211
		c56.684,56.685,122.699,101.191,196.211,132.284c76.121,32.196,156.966,48.521,240.292,48.521s164.171-16.325,240.291-48.521
		c73.512-31.093,139.527-75.6,196.211-132.284c56.685-56.684,101.191-122.699,132.284-196.211
		c32.196-76.12,48.521-156.966,48.521-240.291S1574.294,460.829,1542.098,384.708z M973.312,1192.308
		c-312.814,0-567.308-254.493-567.308-567.308S660.497,57.692,973.312,57.692S1540.619,312.186,1540.619,625
		S1286.126,1192.308,973.312,1192.308z"/>
</g>
</svg>
